<?xml version="1.0" encoding="UTF-8"?>
<svg width="375px" height="40px" viewBox="0 0 375 40" version="1.1" xmlns="http://www.w3.org/2000/svg" xmlns:xlink="http://www.w3.org/1999/xlink">
    <!-- Generator: Sketch 48.2 (47327) - http://www.bohemiancoding.com/sketch -->
    <title>Page 1</title>
    <desc>Created with Sketch.</desc>
    <defs></defs>
    <g id="About" stroke="none" stroke-width="1" fill="none" fill-rule="evenodd" transform="translate(-325.000000, -35.000000)">
        <g id="Page-1" transform="translate(325.000000, 35.000000)" fill="#DCAE6D">
            <path d="M0,0.929953488 L0,39.6369302 L4.88930233,39.6369302 L4.88930233,24.1541395 L11.052093,24.1541395 L14.1069767,21.0983256 L14.1069767,3.98669767 L11.052093,0.929953488 L0,0.929953488 Z M4.88930233,5.00530233 L8.2,5.00530233 L9.21767442,6.02390698 L9.21767442,19.0611163 L8.2,20.0806512 L4.88930233,20.0806512 L4.88930233,5.00530233 Z" id="Fill-1"></path>
            <path d="M23.6821395,0.929953488 L20.6263256,3.98669767 L20.6263256,36.5811163 L23.6821395,39.6369302 L32.1863256,39.6369302 L35.2421395,36.5811163 L35.2421395,3.98669767 L32.1863256,0.929953488 L23.6821395,0.929953488 Z M25.5146977,34.4425116 L25.5146977,6.12530233 L26.5333023,5.10762791 L29.3351628,5.10762791 L30.3528372,6.12530233 L30.3528372,34.4425116 L29.3351628,35.460186 L26.5333023,35.460186 L25.5146977,34.4425116 Z" id="Fill-2"></path>
            <polygon id="Fill-3" points="45.4269767 0.929953488 42.3711628 3.98669767 42.3711628 36.5811163 45.4269767 39.6369302 52.9646512 39.6369302 56.0204651 36.5811163 56.0204651 27.8220465 51.1311628 27.8220465 51.1311628 34.4425116 50.1116279 35.460186 48.2781395 35.460186 47.2604651 34.4425116 47.2604651 6.02390698 48.2781395 5.00530233 50.1116279 5.00530233 51.1311628 6.02390698 51.1311628 12.6955349 56.0204651 12.6955349 56.0204651 3.98669767 52.9646512 0.929953488"></polygon>
            <path d="M65.7979535,0.929953488 L62.7412093,3.98669767 L62.7412093,36.5811163 L65.7979535,39.6369302 L74.3021395,39.6369302 L77.3579535,36.5811163 L77.3579535,3.98669767 L74.3021395,0.929953488 L65.7979535,0.929953488 Z M67.6305116,34.4425116 L67.6305116,6.12530233 L68.6491163,5.10762791 L71.4509767,5.10762791 L72.4686512,6.12530233 L72.4686512,34.4425116 L71.4509767,35.460186 L68.6491163,35.460186 L67.6305116,34.4425116 Z" id="Fill-4"></path>
            <polygon id="Fill-5" points="95.5389767 0.929953488 95.5389767 27.7699535 89.9371163 0.929953488 84.6403721 0.929953488 84.6403721 39.6369302 89.072 39.6369302 89.072 13.2053023 94.6729302 39.6369302 99.9706047 39.6369302 99.9706047 0.929953488"></polygon>
            <path d="M110.308186,0.929953488 L107.252372,3.98669767 L107.252372,36.5811163 L110.308186,39.6369302 L118.812372,39.6369302 L121.868186,36.5811163 L121.868186,3.98669767 L118.812372,0.929953488 L110.308186,0.929953488 Z M112.140744,34.4425116 L112.140744,6.12530233 L113.159349,5.10762791 L115.961209,5.10762791 L116.978884,6.12530233 L116.978884,34.4425116 L115.961209,35.460186 L113.159349,35.460186 L112.140744,34.4425116 Z" id="Fill-6"></path>
            <path d="M141.372837,0.929953488 L141.372837,39.6369302 L152.831442,39.6369302 L155.887256,36.5811163 L155.887256,3.98669767 L152.831442,0.929953488 L141.372837,0.929953488 Z M146.26214,5.10762791 L149.980279,5.10762791 L150.997953,6.12530233 L150.997953,34.4425116 L149.980279,35.460186 L146.26214,35.460186 L146.26214,5.10762791 Z" id="Fill-7"></path>
            <polygon id="Fill-8" points="163.169302 39.6366512 168.058605 39.6366512 168.058605 0.929674419 163.169302 0.929674419"></polygon>
            <polygon id="Fill-9" points="178.396744 0.929953488 175.34093 3.98669767 175.34093 36.5811163 178.396744 39.6369302 186.392093 39.6369302 189.447907 36.5811163 189.447907 19.4685581 182.113953 19.4685581 182.113953 23.8490233 184.558605 23.8490233 184.558605 34.4425116 183.54093 35.460186 181.247907 35.460186 180.230233 34.4425116 180.230233 6.12530233 181.247907 5.10762791 183.54093 5.10762791 184.558605 6.12530233 184.558605 12.1857674 189.447907 12.1857674 189.447907 3.98669767 186.392093 0.929953488"></polygon>
            <polygon id="Fill-10" points="196.627907 39.6366512 201.517209 39.6366512 201.517209 0.929674419 196.627907 0.929674419"></polygon>
            <polygon id="Fill-11" points="207.730047 0.929953488 207.730047 5.00530233 212.364465 5.00530233 212.364465 39.6369302 217.253767 39.6369302 217.253767 5.00530233 221.888186 5.00530233 221.888186 0.929953488"></polygon>
            <path d="M228.966698,0.929953488 L224.333209,39.6369302 L229.221581,39.6369302 L230.189953,29.6546047 L234.671814,29.6546047 L235.638326,39.6369302 L240.732279,39.6369302 L235.995535,0.929953488 L228.966698,0.929953488 Z M232.430884,5.97367442 L234.264372,25.4787907 L230.545302,25.4787907 L232.430884,5.97367442 Z" id="Fill-12"></path>
            <polygon id="Fill-13" points="246.944093 0.929953488 246.944093 39.6369302 258.300372 39.6369302 258.300372 35.460186 251.833395 35.460186 251.833395 0.929953488"></polygon>
            <polygon id="Fill-14" points="286.310512 0.929953488 286.310512 18.0946047 281.167256 18.0946047 281.167256 0.929953488 276.277953 0.929953488 276.277953 39.6369302 281.167256 39.6369302 281.167256 22.371814 286.310512 22.371814 286.310512 39.6369302 291.199814 39.6369302 291.199814 0.929953488"></polygon>
            <path d="M301.538512,0.929953488 L298.482698,3.98669767 L298.482698,36.5811163 L301.538512,39.6369302 L310.043628,39.6369302 L313.099442,36.5811163 L313.099442,3.98669767 L310.043628,0.929953488 L301.538512,0.929953488 Z M303.372,34.4425116 L303.372,6.12530233 L304.389674,5.10762791 L307.192465,5.10762791 L308.21014,6.12530233 L308.21014,34.4425116 L307.192465,35.460186 L304.389674,35.460186 L303.372,34.4425116 Z" id="Fill-15"></path>
            <polygon id="Fill-16" points="329.751628 0.929953488 329.751628 34.4425116 328.733023 35.460186 326.237209 35.460186 325.218605 34.4425116 325.218605 0.929953488 320.329302 0.929953488 320.329302 36.5811163 323.385116 39.6369302 331.585116 39.6369302 334.64093 36.5811163 334.64093 0.929953488"></polygon>
            <polygon id="Fill-17" points="344.723442 0.929953488 341.668558 3.98669767 341.668558 19.0611163 344.723442 22.116 349.511349 22.116 350.529953 23.1364651 350.529953 34.543907 349.511349 35.5615814 347.47414 35.5615814 346.455535 34.543907 346.455535 28.4834419 341.566233 28.4834419 341.566233 36.5811163 344.622047 39.6369302 352.363442 39.6369302 355.419256 36.5811163 355.419256 20.996 352.363442 17.940186 347.576465 17.940186 346.55786 16.9225116 346.55786 6.02390698 347.576465 5.00530233 349.35786 5.00530233 350.377395 6.02390698 350.377395 12.1355349 355.266698 12.1355349 355.266698 3.98669767 352.211814 0.929953488"></polygon>
            <polygon id="Fill-18" points="362.395256 0.929953488 362.395256 39.6369302 374.567349 39.6369302 374.567349 35.460186 367.284558 35.460186 367.284558 22.116 373.549674 22.116 373.549674 17.940186 367.284558 17.940186 367.284558 5.10762791 374.465953 5.10762791 374.465953 0.929953488"></polygon>
        </g>
    </g>
</svg>